<svg xmlns="http://www.w3.org/2000/svg" width="948" height="392" viewBox="0 0 948 392"><style>    .draw {      fill: #ffffff00;      stroke: #fff;      stroke-width: 2px;      stroke-dasharray: 0 1000;      animation: draw 6s ease-in-out infinite;    }    @keyframes draw {      0% {        stroke-dasharray: 0 1000;        fill: #ffffff00;      }      50% {        stroke-dasharray: 1000 0;        fill: #ffffff;      }      100% {        stroke-dasharray: 1000 0;        fill: #ffffff;      }    }  </style><path class="draw" pathLength="1000" d="M5.03929 297.981C8.25178 299.052 11.9997 299.587 16.283 300.123C47.8724 210.173 82.1389 73.6424 91.241 21.1718C92.3118 15.2823 92.3118 8.85729 92.3118 5.1094C92.3118 2.43233 92.3118 0.82608 92.3118 0.82608H95.5243C130.862 0.82608 186.545 29.2031 186.545 77.3903C186.545 113.263 142.641 217.133 109.445 299.587H112.122C140.499 299.587 176.907 304.406 190.293 311.366C205.284 320.468 219.205 350.987 219.205 372.403C219.205 375.616 218.67 378.829 218.134 380.97C211.709 378.293 199.93 378.293 185.474 378.293C121.76 378.293 88.0285 391.143 42.5183 391.143C12.5351 391.143 0.755981 356.877 0.755981 328.5C0.755981 318.862 1.2914 305.477 5.03929 297.981Z"></path><path class="draw" pathLength="1000" d="M400.188 391.143C360.031 391.143 334.332 352.593 334.332 314.579V308.154C322.552 338.137 301.671 391.143 287.215 391.143C248.13 387.395 212.257 345.633 212.257 301.729C212.257 247.117 224.805 147.53 248.363 118.082C283.7 120.223 318.502 144.317 330.281 164.127C310.471 206.425 300.6 271.21 290.963 337.066C309.167 322.61 330.584 289.414 340.221 269.604C342.363 259.431 345.575 246.581 349.859 233.196C358.961 203.748 366.992 163.592 374.488 118.082C414.108 120.759 458.548 144.317 458.548 188.756C458.548 221.952 436.596 275.494 425.352 303.335C451.052 291.556 481.57 270.675 493.35 261.037C493.35 302.264 449.981 391.143 400.188 391.143Z"></path><path class="draw" pathLength="1000" d="M531.615 18.4947C572.306 21.1718 616.746 44.7301 616.746 89.1694C616.746 133.609 596.935 193.04 584.621 238.015C606.573 185.009 639.233 126.113 657.973 126.113C679.389 126.113 724.364 166.804 724.364 208.567C724.364 269.069 679.925 367.585 617.281 391.143C589.44 390.072 564.275 361.16 556.779 327.964C546.071 355.806 535.363 378.828 526.261 391.143C497.884 390.608 458.799 370.797 444.878 341.885C444.878 341.885 459.334 309.225 467.901 285.131C497.348 201.606 521.442 87.0278 531.615 18.4947ZM571.771 285.131C570.165 291.021 566.417 302.8 564.811 306.548L579.802 305.477C599.077 294.768 624.777 249.794 641.91 195.717C621.565 211.244 593.188 244.44 571.771 285.131Z"></path><path class="draw" pathLength="1000" d="M832.158 118.082C838.048 120.223 843.402 122.901 848.22 126.113C885.699 134.144 921.037 152.348 939.776 176.977C944.06 188.756 947.807 203.213 947.807 225.165C947.807 284.596 910.864 369.726 863.212 391.143C835.906 387.395 811.812 357.947 811.277 319.933C846.614 304.406 864.283 259.431 868.031 220.346C819.308 261.037 798.962 311.366 792.537 391.143C760.948 385.253 732.035 351.522 727.752 328.5C726.681 323.681 726.146 316.72 726.146 308.689C726.146 227.842 768.444 141.64 832.158 118.082Z"></path></svg>